%TF.GenerationSoftware,KiCad,Pcbnew,5.1.10*%
%TF.CreationDate,2021-07-25T21:05:11+03:00*%
%TF.ProjectId,hoperf-rfm9x-lora-breakout,686f7065-7266-42d7-9266-6d39782d6c6f,rev?*%
%TF.SameCoordinates,Original*%
%TF.FileFunction,Soldermask,Top*%
%TF.FilePolarity,Negative*%
%FSLAX46Y46*%
G04 Gerber Fmt 4.6, Leading zero omitted, Abs format (unit mm)*
G04 Created by KiCad (PCBNEW 5.1.10) date 2021-07-25 21:05:11*
%MOMM*%
%LPD*%
G01*
G04 APERTURE LIST*
%ADD10C,0.100000*%
%ADD11R,2.000000X0.800000*%
%ADD12C,1.930400*%
%ADD13R,1.200000X1.300000*%
%ADD14C,1.676400*%
%ADD15R,1.016000X2.032000*%
%ADD16R,1.524000X4.064000*%
G04 APERTURE END LIST*
D10*
%TO.C,UFL/SMA1*%
G36*
X138662900Y-97091400D02*
G01*
X138662900Y-94754600D01*
X137748500Y-94754600D01*
X137748500Y-97091400D01*
X138662900Y-97091400D01*
G37*
G36*
X140539300Y-94754600D02*
G01*
X140539300Y-97091400D01*
X141453700Y-97091400D01*
X141453700Y-94754600D01*
X140539300Y-94754600D01*
G37*
%TD*%
D11*
%TO.C,U1*%
X156591100Y-99819600D03*
X156591100Y-101819600D03*
X156591100Y-103819600D03*
X156591100Y-105819600D03*
X156591100Y-107819600D03*
X156591100Y-109819600D03*
X156591100Y-111819600D03*
X156591100Y-113819600D03*
X140391100Y-113819600D03*
X140391100Y-111819600D03*
X140391100Y-109819600D03*
X140391100Y-107819600D03*
X140391100Y-105819600D03*
X140391100Y-103819600D03*
X140391100Y-101819600D03*
X140391100Y-99819600D03*
%TD*%
D12*
%TO.C,JP1*%
X159921100Y-96278600D03*
X159921100Y-98818600D03*
X159921100Y-101358600D03*
X159921100Y-103898600D03*
X159921100Y-106438600D03*
X159921100Y-108978600D03*
X159921100Y-111518600D03*
X159921100Y-114058600D03*
%TD*%
D13*
%TO.C,C1*%
X148745100Y-97294600D03*
X146713100Y-97294600D03*
%TD*%
D12*
%TO.C,JP2*%
X137061100Y-101358600D03*
X137061100Y-103898600D03*
X137061100Y-106438600D03*
X137061100Y-108978600D03*
X137061100Y-111518600D03*
X137061100Y-114058600D03*
%TD*%
D14*
%TO.C,ANT1*%
X139220100Y-98564600D03*
%TD*%
D15*
%TO.C,UFL/SMA1*%
X139601100Y-96913600D03*
D16*
X142141100Y-95897600D03*
X137061100Y-95897600D03*
%TD*%
M02*
