%TF.GenerationSoftware,KiCad,Pcbnew,5.1.10*%
%TF.CreationDate,2021-07-25T21:05:11+03:00*%
%TF.ProjectId,hoperf-rfm9x-lora-breakout,686f7065-7266-42d7-9266-6d39782d6c6f,rev?*%
%TF.SameCoordinates,Original*%
%TF.FileFunction,Copper,L2,Bot*%
%TF.FilePolarity,Positive*%
%FSLAX46Y46*%
G04 Gerber Fmt 4.6, Leading zero omitted, Abs format (unit mm)*
G04 Created by KiCad (PCBNEW 5.1.10) date 2021-07-25 21:05:11*
%MOMM*%
%LPD*%
G01*
G04 APERTURE LIST*
%TA.AperFunction,ComponentPad*%
%ADD10C,1.930400*%
%TD*%
%TA.AperFunction,ComponentPad*%
%ADD11C,1.676400*%
%TD*%
%TA.AperFunction,SMDPad,CuDef*%
%ADD12R,1.524000X4.064000*%
%TD*%
%TA.AperFunction,ViaPad*%
%ADD13C,0.704800*%
%TD*%
%TA.AperFunction,Conductor*%
%ADD14C,0.406400*%
%TD*%
%TA.AperFunction,Conductor*%
%ADD15C,0.203200*%
%TD*%
%TA.AperFunction,Conductor*%
%ADD16C,0.100000*%
%TD*%
G04 APERTURE END LIST*
D10*
%TO.P,JP1,8*%
%TO.N,GND*%
X159921100Y-96278600D03*
%TO.P,JP1,7*%
%TO.N,Net-(JP1-Pad7)*%
X159921100Y-98818600D03*
%TO.P,JP1,6*%
%TO.N,Net-(JP1-Pad6)*%
X159921100Y-101358600D03*
%TO.P,JP1,5*%
%TO.N,Net-(JP1-Pad5)*%
X159921100Y-103898600D03*
%TO.P,JP1,4*%
%TO.N,Net-(JP1-Pad4)*%
X159921100Y-106438600D03*
%TO.P,JP1,3*%
%TO.N,Net-(JP1-Pad3)*%
X159921100Y-108978600D03*
%TO.P,JP1,2*%
%TO.N,Net-(JP1-Pad2)*%
X159921100Y-111518600D03*
%TO.P,JP1,1*%
%TO.N,GND*%
X159921100Y-114058600D03*
%TD*%
%TO.P,JP2,6*%
%TO.N,Net-(JP2-Pad6)*%
X137061100Y-101358600D03*
%TO.P,JP2,5*%
%TO.N,Net-(JP2-Pad5)*%
X137061100Y-103898600D03*
%TO.P,JP2,4*%
%TO.N,Net-(C1-Pad1)*%
X137061100Y-106438600D03*
%TO.P,JP2,3*%
%TO.N,Net-(JP2-Pad3)*%
X137061100Y-108978600D03*
%TO.P,JP2,2*%
%TO.N,Net-(JP2-Pad2)*%
X137061100Y-111518600D03*
%TO.P,JP2,1*%
%TO.N,Net-(JP2-Pad1)*%
X137061100Y-114058600D03*
%TD*%
D11*
%TO.P,ANT1,1*%
%TO.N,Net-(ANT1-Pad1)*%
X139220100Y-98564600D03*
%TD*%
D12*
%TO.P,UFL/SMA1,GND@4*%
%TO.N,GND*%
X137061100Y-95897600D03*
%TO.P,UFL/SMA1,GND@3*%
X142141100Y-95897600D03*
%TD*%
D13*
%TO.N,GND*%
X140871100Y-98564600D03*
X137696100Y-98691600D03*
X138077100Y-99707600D03*
X138839100Y-100596600D03*
X147983100Y-95008600D03*
X152809100Y-95008600D03*
X157381100Y-95008600D03*
X139601100Y-115328600D03*
X144681100Y-115328600D03*
X149761100Y-115328600D03*
X154841100Y-115328600D03*
X148237100Y-101739600D03*
X154079100Y-104152600D03*
X145951100Y-108978600D03*
X153698100Y-99707600D03*
X154333100Y-106946600D03*
X148872100Y-105930600D03*
X149380100Y-112153600D03*
X143538100Y-102120600D03*
X144681100Y-106438600D03*
X142141100Y-108978600D03*
X142141100Y-100088600D03*
X142141100Y-105168600D03*
X144681100Y-96024600D03*
X151539100Y-97548600D03*
X157381100Y-97548600D03*
X144681100Y-95008600D03*
X144681100Y-97040600D03*
X143411100Y-98818600D03*
X136426100Y-98691600D03*
X153825100Y-112280600D03*
X153952100Y-109613600D03*
X145062100Y-112153600D03*
%TD*%
D14*
%TO.N,GND*%
X159540100Y-95897600D02*
X159921100Y-96278600D01*
X137061100Y-95897600D02*
X142141100Y-95897600D01*
%TD*%
D15*
%TO.N,GND*%
X140821100Y-95631500D02*
X140960600Y-95771000D01*
X142014500Y-95771000D01*
X142014500Y-95751000D01*
X142267700Y-95751000D01*
X142267700Y-95771000D01*
X143321600Y-95771000D01*
X143461100Y-95631500D01*
X143463276Y-94208600D01*
X160934400Y-94208600D01*
X160934400Y-95128042D01*
X160913508Y-95107150D01*
X160811132Y-95209526D01*
X160715242Y-94970172D01*
X160444721Y-94840384D01*
X160154078Y-94765866D01*
X159854481Y-94749481D01*
X159557446Y-94791859D01*
X159274384Y-94891372D01*
X159126958Y-94970172D01*
X159031067Y-95209527D01*
X159921100Y-96099561D01*
X159935242Y-96085418D01*
X160114282Y-96264458D01*
X160100139Y-96278600D01*
X160114282Y-96292742D01*
X159935242Y-96471782D01*
X159921100Y-96457639D01*
X159031067Y-97347673D01*
X159126958Y-97587028D01*
X159396385Y-97716291D01*
X159343592Y-97738159D01*
X159143905Y-97871586D01*
X158974086Y-98041405D01*
X158840659Y-98241092D01*
X158748753Y-98462973D01*
X158701900Y-98698519D01*
X158701900Y-98938681D01*
X158748753Y-99174227D01*
X158840659Y-99396108D01*
X158974086Y-99595795D01*
X159143905Y-99765614D01*
X159343592Y-99899041D01*
X159565473Y-99990947D01*
X159801019Y-100037800D01*
X160041181Y-100037800D01*
X160276727Y-99990947D01*
X160498608Y-99899041D01*
X160698295Y-99765614D01*
X160868114Y-99595795D01*
X160934400Y-99496591D01*
X160934400Y-100680609D01*
X160868114Y-100581405D01*
X160698295Y-100411586D01*
X160498608Y-100278159D01*
X160276727Y-100186253D01*
X160041181Y-100139400D01*
X159801019Y-100139400D01*
X159565473Y-100186253D01*
X159343592Y-100278159D01*
X159143905Y-100411586D01*
X158974086Y-100581405D01*
X158840659Y-100781092D01*
X158748753Y-101002973D01*
X158701900Y-101238519D01*
X158701900Y-101478681D01*
X158748753Y-101714227D01*
X158840659Y-101936108D01*
X158974086Y-102135795D01*
X159143905Y-102305614D01*
X159343592Y-102439041D01*
X159565473Y-102530947D01*
X159801019Y-102577800D01*
X160041181Y-102577800D01*
X160276727Y-102530947D01*
X160498608Y-102439041D01*
X160698295Y-102305614D01*
X160868114Y-102135795D01*
X160934400Y-102036591D01*
X160934400Y-103220609D01*
X160868114Y-103121405D01*
X160698295Y-102951586D01*
X160498608Y-102818159D01*
X160276727Y-102726253D01*
X160041181Y-102679400D01*
X159801019Y-102679400D01*
X159565473Y-102726253D01*
X159343592Y-102818159D01*
X159143905Y-102951586D01*
X158974086Y-103121405D01*
X158840659Y-103321092D01*
X158748753Y-103542973D01*
X158701900Y-103778519D01*
X158701900Y-104018681D01*
X158748753Y-104254227D01*
X158840659Y-104476108D01*
X158974086Y-104675795D01*
X159143905Y-104845614D01*
X159343592Y-104979041D01*
X159565473Y-105070947D01*
X159801019Y-105117800D01*
X160041181Y-105117800D01*
X160276727Y-105070947D01*
X160498608Y-104979041D01*
X160698295Y-104845614D01*
X160868114Y-104675795D01*
X160934400Y-104576591D01*
X160934400Y-105760609D01*
X160868114Y-105661405D01*
X160698295Y-105491586D01*
X160498608Y-105358159D01*
X160276727Y-105266253D01*
X160041181Y-105219400D01*
X159801019Y-105219400D01*
X159565473Y-105266253D01*
X159343592Y-105358159D01*
X159143905Y-105491586D01*
X158974086Y-105661405D01*
X158840659Y-105861092D01*
X158748753Y-106082973D01*
X158701900Y-106318519D01*
X158701900Y-106558681D01*
X158748753Y-106794227D01*
X158840659Y-107016108D01*
X158974086Y-107215795D01*
X159143905Y-107385614D01*
X159343592Y-107519041D01*
X159565473Y-107610947D01*
X159801019Y-107657800D01*
X160041181Y-107657800D01*
X160276727Y-107610947D01*
X160498608Y-107519041D01*
X160698295Y-107385614D01*
X160868114Y-107215795D01*
X160934400Y-107116591D01*
X160934400Y-108300609D01*
X160868114Y-108201405D01*
X160698295Y-108031586D01*
X160498608Y-107898159D01*
X160276727Y-107806253D01*
X160041181Y-107759400D01*
X159801019Y-107759400D01*
X159565473Y-107806253D01*
X159343592Y-107898159D01*
X159143905Y-108031586D01*
X158974086Y-108201405D01*
X158840659Y-108401092D01*
X158748753Y-108622973D01*
X158701900Y-108858519D01*
X158701900Y-109098681D01*
X158748753Y-109334227D01*
X158840659Y-109556108D01*
X158974086Y-109755795D01*
X159143905Y-109925614D01*
X159343592Y-110059041D01*
X159565473Y-110150947D01*
X159801019Y-110197800D01*
X160041181Y-110197800D01*
X160276727Y-110150947D01*
X160498608Y-110059041D01*
X160698295Y-109925614D01*
X160868114Y-109755795D01*
X160934400Y-109656591D01*
X160934400Y-110840609D01*
X160868114Y-110741405D01*
X160698295Y-110571586D01*
X160498608Y-110438159D01*
X160276727Y-110346253D01*
X160041181Y-110299400D01*
X159801019Y-110299400D01*
X159565473Y-110346253D01*
X159343592Y-110438159D01*
X159143905Y-110571586D01*
X158974086Y-110741405D01*
X158840659Y-110941092D01*
X158748753Y-111162973D01*
X158701900Y-111398519D01*
X158701900Y-111638681D01*
X158748753Y-111874227D01*
X158840659Y-112096108D01*
X158974086Y-112295795D01*
X159143905Y-112465614D01*
X159343592Y-112599041D01*
X159406274Y-112625005D01*
X159274384Y-112671372D01*
X159126958Y-112750172D01*
X159031067Y-112989527D01*
X159921100Y-113879561D01*
X159935242Y-113865418D01*
X160114282Y-114044458D01*
X160100139Y-114058600D01*
X160114282Y-114072742D01*
X159935242Y-114251782D01*
X159921100Y-114237639D01*
X159031067Y-115127673D01*
X159126958Y-115367028D01*
X159397479Y-115496816D01*
X159688122Y-115571334D01*
X159987719Y-115587719D01*
X160284754Y-115545341D01*
X160567816Y-115445828D01*
X160715242Y-115367028D01*
X160811132Y-115127674D01*
X160913508Y-115230050D01*
X160934400Y-115209158D01*
X160934400Y-115722400D01*
X135991600Y-115722400D01*
X135991600Y-114652482D01*
X136114086Y-114835795D01*
X136283905Y-115005614D01*
X136483592Y-115139041D01*
X136705473Y-115230947D01*
X136941019Y-115277800D01*
X137181181Y-115277800D01*
X137416727Y-115230947D01*
X137638608Y-115139041D01*
X137838295Y-115005614D01*
X138008114Y-114835795D01*
X138141541Y-114636108D01*
X138233447Y-114414227D01*
X138280300Y-114178681D01*
X138280300Y-114125219D01*
X158391981Y-114125219D01*
X158434359Y-114422254D01*
X158533872Y-114705316D01*
X158612672Y-114852742D01*
X158852027Y-114948633D01*
X159742061Y-114058600D01*
X158852027Y-113168567D01*
X158612672Y-113264458D01*
X158482884Y-113534979D01*
X158408366Y-113825622D01*
X158391981Y-114125219D01*
X138280300Y-114125219D01*
X138280300Y-113938519D01*
X138233447Y-113702973D01*
X138141541Y-113481092D01*
X138008114Y-113281405D01*
X137838295Y-113111586D01*
X137638608Y-112978159D01*
X137416727Y-112886253D01*
X137181181Y-112839400D01*
X136941019Y-112839400D01*
X136705473Y-112886253D01*
X136483592Y-112978159D01*
X136283905Y-113111586D01*
X136114086Y-113281405D01*
X135991600Y-113464718D01*
X135991600Y-112112482D01*
X136114086Y-112295795D01*
X136283905Y-112465614D01*
X136483592Y-112599041D01*
X136705473Y-112690947D01*
X136941019Y-112737800D01*
X137181181Y-112737800D01*
X137416727Y-112690947D01*
X137638608Y-112599041D01*
X137838295Y-112465614D01*
X138008114Y-112295795D01*
X138141541Y-112096108D01*
X138233447Y-111874227D01*
X138280300Y-111638681D01*
X138280300Y-111398519D01*
X138233447Y-111162973D01*
X138141541Y-110941092D01*
X138008114Y-110741405D01*
X137838295Y-110571586D01*
X137638608Y-110438159D01*
X137416727Y-110346253D01*
X137181181Y-110299400D01*
X136941019Y-110299400D01*
X136705473Y-110346253D01*
X136483592Y-110438159D01*
X136283905Y-110571586D01*
X136114086Y-110741405D01*
X135991600Y-110924718D01*
X135991600Y-109572482D01*
X136114086Y-109755795D01*
X136283905Y-109925614D01*
X136483592Y-110059041D01*
X136705473Y-110150947D01*
X136941019Y-110197800D01*
X137181181Y-110197800D01*
X137416727Y-110150947D01*
X137638608Y-110059041D01*
X137838295Y-109925614D01*
X138008114Y-109755795D01*
X138141541Y-109556108D01*
X138233447Y-109334227D01*
X138280300Y-109098681D01*
X138280300Y-108858519D01*
X138233447Y-108622973D01*
X138141541Y-108401092D01*
X138008114Y-108201405D01*
X137838295Y-108031586D01*
X137638608Y-107898159D01*
X137416727Y-107806253D01*
X137181181Y-107759400D01*
X136941019Y-107759400D01*
X136705473Y-107806253D01*
X136483592Y-107898159D01*
X136283905Y-108031586D01*
X136114086Y-108201405D01*
X135991600Y-108384718D01*
X135991600Y-107032482D01*
X136114086Y-107215795D01*
X136283905Y-107385614D01*
X136483592Y-107519041D01*
X136705473Y-107610947D01*
X136941019Y-107657800D01*
X137181181Y-107657800D01*
X137416727Y-107610947D01*
X137638608Y-107519041D01*
X137838295Y-107385614D01*
X138008114Y-107215795D01*
X138141541Y-107016108D01*
X138233447Y-106794227D01*
X138280300Y-106558681D01*
X138280300Y-106318519D01*
X138233447Y-106082973D01*
X138141541Y-105861092D01*
X138008114Y-105661405D01*
X137838295Y-105491586D01*
X137638608Y-105358159D01*
X137416727Y-105266253D01*
X137181181Y-105219400D01*
X136941019Y-105219400D01*
X136705473Y-105266253D01*
X136483592Y-105358159D01*
X136283905Y-105491586D01*
X136114086Y-105661405D01*
X135991600Y-105844718D01*
X135991600Y-104492482D01*
X136114086Y-104675795D01*
X136283905Y-104845614D01*
X136483592Y-104979041D01*
X136705473Y-105070947D01*
X136941019Y-105117800D01*
X137181181Y-105117800D01*
X137416727Y-105070947D01*
X137638608Y-104979041D01*
X137838295Y-104845614D01*
X138008114Y-104675795D01*
X138141541Y-104476108D01*
X138233447Y-104254227D01*
X138280300Y-104018681D01*
X138280300Y-103778519D01*
X138233447Y-103542973D01*
X138141541Y-103321092D01*
X138008114Y-103121405D01*
X137838295Y-102951586D01*
X137638608Y-102818159D01*
X137416727Y-102726253D01*
X137181181Y-102679400D01*
X136941019Y-102679400D01*
X136705473Y-102726253D01*
X136483592Y-102818159D01*
X136283905Y-102951586D01*
X136114086Y-103121405D01*
X135991600Y-103304718D01*
X135991600Y-101952482D01*
X136114086Y-102135795D01*
X136283905Y-102305614D01*
X136483592Y-102439041D01*
X136705473Y-102530947D01*
X136941019Y-102577800D01*
X137181181Y-102577800D01*
X137416727Y-102530947D01*
X137638608Y-102439041D01*
X137838295Y-102305614D01*
X138008114Y-102135795D01*
X138141541Y-101936108D01*
X138233447Y-101714227D01*
X138280300Y-101478681D01*
X138280300Y-101238519D01*
X138233447Y-101002973D01*
X138141541Y-100781092D01*
X138008114Y-100581405D01*
X137838295Y-100411586D01*
X137638608Y-100278159D01*
X137416727Y-100186253D01*
X137181181Y-100139400D01*
X136941019Y-100139400D01*
X136705473Y-100186253D01*
X136483592Y-100278159D01*
X136283905Y-100411586D01*
X136114086Y-100581405D01*
X135991600Y-100764718D01*
X135991600Y-98397947D01*
X136084529Y-98447619D01*
X136189713Y-98479526D01*
X136299100Y-98490300D01*
X136795000Y-98487600D01*
X136934500Y-98348100D01*
X136934500Y-96024200D01*
X137187700Y-96024200D01*
X137187700Y-98348100D01*
X137327200Y-98487600D01*
X137823100Y-98490300D01*
X137932487Y-98479526D01*
X138037671Y-98447619D01*
X138134608Y-98395805D01*
X138141145Y-98390440D01*
X138127900Y-98457028D01*
X138127900Y-98672172D01*
X138169872Y-98883183D01*
X138252205Y-99081951D01*
X138371733Y-99260837D01*
X138523863Y-99412967D01*
X138702749Y-99532495D01*
X138901517Y-99614828D01*
X139112528Y-99656800D01*
X139327672Y-99656800D01*
X139538683Y-99614828D01*
X139737451Y-99532495D01*
X139916337Y-99412967D01*
X140068467Y-99260837D01*
X140187995Y-99081951D01*
X140270328Y-98883183D01*
X140312300Y-98672172D01*
X140312300Y-98457028D01*
X140270328Y-98246017D01*
X140187995Y-98047249D01*
X140109385Y-97929600D01*
X140818400Y-97929600D01*
X140829174Y-98038987D01*
X140861081Y-98144171D01*
X140912895Y-98241108D01*
X140982625Y-98326075D01*
X141067592Y-98395805D01*
X141164529Y-98447619D01*
X141269713Y-98479526D01*
X141379100Y-98490300D01*
X141875000Y-98487600D01*
X142014500Y-98348100D01*
X142014500Y-96024200D01*
X142267700Y-96024200D01*
X142267700Y-98348100D01*
X142407200Y-98487600D01*
X142903100Y-98490300D01*
X143012487Y-98479526D01*
X143117671Y-98447619D01*
X143214608Y-98395805D01*
X143299575Y-98326075D01*
X143369305Y-98241108D01*
X143421119Y-98144171D01*
X143453026Y-98038987D01*
X143463800Y-97929600D01*
X143461378Y-96345219D01*
X158391981Y-96345219D01*
X158434359Y-96642254D01*
X158533872Y-96925316D01*
X158612672Y-97072742D01*
X158852027Y-97168633D01*
X159742061Y-96278600D01*
X158852027Y-95388567D01*
X158612672Y-95484458D01*
X158482884Y-95754979D01*
X158408366Y-96045622D01*
X158391981Y-96345219D01*
X143461378Y-96345219D01*
X143461100Y-96163700D01*
X143321600Y-96024200D01*
X142267700Y-96024200D01*
X142014500Y-96024200D01*
X140960600Y-96024200D01*
X140821100Y-96163700D01*
X140818400Y-97929600D01*
X140109385Y-97929600D01*
X140068467Y-97868363D01*
X139916337Y-97716233D01*
X139737451Y-97596705D01*
X139538683Y-97514372D01*
X139327672Y-97472400D01*
X139112528Y-97472400D01*
X138901517Y-97514372D01*
X138702749Y-97596705D01*
X138523863Y-97716233D01*
X138383688Y-97856408D01*
X138381100Y-96163700D01*
X138241600Y-96024200D01*
X137187700Y-96024200D01*
X136934500Y-96024200D01*
X136914500Y-96024200D01*
X136914500Y-95771000D01*
X136934500Y-95771000D01*
X136934500Y-95751000D01*
X137187700Y-95751000D01*
X137187700Y-95771000D01*
X138241600Y-95771000D01*
X138381100Y-95631500D01*
X138383276Y-94208600D01*
X140818924Y-94208600D01*
X140821100Y-95631500D01*
%TA.AperFunction,Conductor*%
D16*
G36*
X140821100Y-95631500D02*
G01*
X140960600Y-95771000D01*
X142014500Y-95771000D01*
X142014500Y-95751000D01*
X142267700Y-95751000D01*
X142267700Y-95771000D01*
X143321600Y-95771000D01*
X143461100Y-95631500D01*
X143463276Y-94208600D01*
X160934400Y-94208600D01*
X160934400Y-95128042D01*
X160913508Y-95107150D01*
X160811132Y-95209526D01*
X160715242Y-94970172D01*
X160444721Y-94840384D01*
X160154078Y-94765866D01*
X159854481Y-94749481D01*
X159557446Y-94791859D01*
X159274384Y-94891372D01*
X159126958Y-94970172D01*
X159031067Y-95209527D01*
X159921100Y-96099561D01*
X159935242Y-96085418D01*
X160114282Y-96264458D01*
X160100139Y-96278600D01*
X160114282Y-96292742D01*
X159935242Y-96471782D01*
X159921100Y-96457639D01*
X159031067Y-97347673D01*
X159126958Y-97587028D01*
X159396385Y-97716291D01*
X159343592Y-97738159D01*
X159143905Y-97871586D01*
X158974086Y-98041405D01*
X158840659Y-98241092D01*
X158748753Y-98462973D01*
X158701900Y-98698519D01*
X158701900Y-98938681D01*
X158748753Y-99174227D01*
X158840659Y-99396108D01*
X158974086Y-99595795D01*
X159143905Y-99765614D01*
X159343592Y-99899041D01*
X159565473Y-99990947D01*
X159801019Y-100037800D01*
X160041181Y-100037800D01*
X160276727Y-99990947D01*
X160498608Y-99899041D01*
X160698295Y-99765614D01*
X160868114Y-99595795D01*
X160934400Y-99496591D01*
X160934400Y-100680609D01*
X160868114Y-100581405D01*
X160698295Y-100411586D01*
X160498608Y-100278159D01*
X160276727Y-100186253D01*
X160041181Y-100139400D01*
X159801019Y-100139400D01*
X159565473Y-100186253D01*
X159343592Y-100278159D01*
X159143905Y-100411586D01*
X158974086Y-100581405D01*
X158840659Y-100781092D01*
X158748753Y-101002973D01*
X158701900Y-101238519D01*
X158701900Y-101478681D01*
X158748753Y-101714227D01*
X158840659Y-101936108D01*
X158974086Y-102135795D01*
X159143905Y-102305614D01*
X159343592Y-102439041D01*
X159565473Y-102530947D01*
X159801019Y-102577800D01*
X160041181Y-102577800D01*
X160276727Y-102530947D01*
X160498608Y-102439041D01*
X160698295Y-102305614D01*
X160868114Y-102135795D01*
X160934400Y-102036591D01*
X160934400Y-103220609D01*
X160868114Y-103121405D01*
X160698295Y-102951586D01*
X160498608Y-102818159D01*
X160276727Y-102726253D01*
X160041181Y-102679400D01*
X159801019Y-102679400D01*
X159565473Y-102726253D01*
X159343592Y-102818159D01*
X159143905Y-102951586D01*
X158974086Y-103121405D01*
X158840659Y-103321092D01*
X158748753Y-103542973D01*
X158701900Y-103778519D01*
X158701900Y-104018681D01*
X158748753Y-104254227D01*
X158840659Y-104476108D01*
X158974086Y-104675795D01*
X159143905Y-104845614D01*
X159343592Y-104979041D01*
X159565473Y-105070947D01*
X159801019Y-105117800D01*
X160041181Y-105117800D01*
X160276727Y-105070947D01*
X160498608Y-104979041D01*
X160698295Y-104845614D01*
X160868114Y-104675795D01*
X160934400Y-104576591D01*
X160934400Y-105760609D01*
X160868114Y-105661405D01*
X160698295Y-105491586D01*
X160498608Y-105358159D01*
X160276727Y-105266253D01*
X160041181Y-105219400D01*
X159801019Y-105219400D01*
X159565473Y-105266253D01*
X159343592Y-105358159D01*
X159143905Y-105491586D01*
X158974086Y-105661405D01*
X158840659Y-105861092D01*
X158748753Y-106082973D01*
X158701900Y-106318519D01*
X158701900Y-106558681D01*
X158748753Y-106794227D01*
X158840659Y-107016108D01*
X158974086Y-107215795D01*
X159143905Y-107385614D01*
X159343592Y-107519041D01*
X159565473Y-107610947D01*
X159801019Y-107657800D01*
X160041181Y-107657800D01*
X160276727Y-107610947D01*
X160498608Y-107519041D01*
X160698295Y-107385614D01*
X160868114Y-107215795D01*
X160934400Y-107116591D01*
X160934400Y-108300609D01*
X160868114Y-108201405D01*
X160698295Y-108031586D01*
X160498608Y-107898159D01*
X160276727Y-107806253D01*
X160041181Y-107759400D01*
X159801019Y-107759400D01*
X159565473Y-107806253D01*
X159343592Y-107898159D01*
X159143905Y-108031586D01*
X158974086Y-108201405D01*
X158840659Y-108401092D01*
X158748753Y-108622973D01*
X158701900Y-108858519D01*
X158701900Y-109098681D01*
X158748753Y-109334227D01*
X158840659Y-109556108D01*
X158974086Y-109755795D01*
X159143905Y-109925614D01*
X159343592Y-110059041D01*
X159565473Y-110150947D01*
X159801019Y-110197800D01*
X160041181Y-110197800D01*
X160276727Y-110150947D01*
X160498608Y-110059041D01*
X160698295Y-109925614D01*
X160868114Y-109755795D01*
X160934400Y-109656591D01*
X160934400Y-110840609D01*
X160868114Y-110741405D01*
X160698295Y-110571586D01*
X160498608Y-110438159D01*
X160276727Y-110346253D01*
X160041181Y-110299400D01*
X159801019Y-110299400D01*
X159565473Y-110346253D01*
X159343592Y-110438159D01*
X159143905Y-110571586D01*
X158974086Y-110741405D01*
X158840659Y-110941092D01*
X158748753Y-111162973D01*
X158701900Y-111398519D01*
X158701900Y-111638681D01*
X158748753Y-111874227D01*
X158840659Y-112096108D01*
X158974086Y-112295795D01*
X159143905Y-112465614D01*
X159343592Y-112599041D01*
X159406274Y-112625005D01*
X159274384Y-112671372D01*
X159126958Y-112750172D01*
X159031067Y-112989527D01*
X159921100Y-113879561D01*
X159935242Y-113865418D01*
X160114282Y-114044458D01*
X160100139Y-114058600D01*
X160114282Y-114072742D01*
X159935242Y-114251782D01*
X159921100Y-114237639D01*
X159031067Y-115127673D01*
X159126958Y-115367028D01*
X159397479Y-115496816D01*
X159688122Y-115571334D01*
X159987719Y-115587719D01*
X160284754Y-115545341D01*
X160567816Y-115445828D01*
X160715242Y-115367028D01*
X160811132Y-115127674D01*
X160913508Y-115230050D01*
X160934400Y-115209158D01*
X160934400Y-115722400D01*
X135991600Y-115722400D01*
X135991600Y-114652482D01*
X136114086Y-114835795D01*
X136283905Y-115005614D01*
X136483592Y-115139041D01*
X136705473Y-115230947D01*
X136941019Y-115277800D01*
X137181181Y-115277800D01*
X137416727Y-115230947D01*
X137638608Y-115139041D01*
X137838295Y-115005614D01*
X138008114Y-114835795D01*
X138141541Y-114636108D01*
X138233447Y-114414227D01*
X138280300Y-114178681D01*
X138280300Y-114125219D01*
X158391981Y-114125219D01*
X158434359Y-114422254D01*
X158533872Y-114705316D01*
X158612672Y-114852742D01*
X158852027Y-114948633D01*
X159742061Y-114058600D01*
X158852027Y-113168567D01*
X158612672Y-113264458D01*
X158482884Y-113534979D01*
X158408366Y-113825622D01*
X158391981Y-114125219D01*
X138280300Y-114125219D01*
X138280300Y-113938519D01*
X138233447Y-113702973D01*
X138141541Y-113481092D01*
X138008114Y-113281405D01*
X137838295Y-113111586D01*
X137638608Y-112978159D01*
X137416727Y-112886253D01*
X137181181Y-112839400D01*
X136941019Y-112839400D01*
X136705473Y-112886253D01*
X136483592Y-112978159D01*
X136283905Y-113111586D01*
X136114086Y-113281405D01*
X135991600Y-113464718D01*
X135991600Y-112112482D01*
X136114086Y-112295795D01*
X136283905Y-112465614D01*
X136483592Y-112599041D01*
X136705473Y-112690947D01*
X136941019Y-112737800D01*
X137181181Y-112737800D01*
X137416727Y-112690947D01*
X137638608Y-112599041D01*
X137838295Y-112465614D01*
X138008114Y-112295795D01*
X138141541Y-112096108D01*
X138233447Y-111874227D01*
X138280300Y-111638681D01*
X138280300Y-111398519D01*
X138233447Y-111162973D01*
X138141541Y-110941092D01*
X138008114Y-110741405D01*
X137838295Y-110571586D01*
X137638608Y-110438159D01*
X137416727Y-110346253D01*
X137181181Y-110299400D01*
X136941019Y-110299400D01*
X136705473Y-110346253D01*
X136483592Y-110438159D01*
X136283905Y-110571586D01*
X136114086Y-110741405D01*
X135991600Y-110924718D01*
X135991600Y-109572482D01*
X136114086Y-109755795D01*
X136283905Y-109925614D01*
X136483592Y-110059041D01*
X136705473Y-110150947D01*
X136941019Y-110197800D01*
X137181181Y-110197800D01*
X137416727Y-110150947D01*
X137638608Y-110059041D01*
X137838295Y-109925614D01*
X138008114Y-109755795D01*
X138141541Y-109556108D01*
X138233447Y-109334227D01*
X138280300Y-109098681D01*
X138280300Y-108858519D01*
X138233447Y-108622973D01*
X138141541Y-108401092D01*
X138008114Y-108201405D01*
X137838295Y-108031586D01*
X137638608Y-107898159D01*
X137416727Y-107806253D01*
X137181181Y-107759400D01*
X136941019Y-107759400D01*
X136705473Y-107806253D01*
X136483592Y-107898159D01*
X136283905Y-108031586D01*
X136114086Y-108201405D01*
X135991600Y-108384718D01*
X135991600Y-107032482D01*
X136114086Y-107215795D01*
X136283905Y-107385614D01*
X136483592Y-107519041D01*
X136705473Y-107610947D01*
X136941019Y-107657800D01*
X137181181Y-107657800D01*
X137416727Y-107610947D01*
X137638608Y-107519041D01*
X137838295Y-107385614D01*
X138008114Y-107215795D01*
X138141541Y-107016108D01*
X138233447Y-106794227D01*
X138280300Y-106558681D01*
X138280300Y-106318519D01*
X138233447Y-106082973D01*
X138141541Y-105861092D01*
X138008114Y-105661405D01*
X137838295Y-105491586D01*
X137638608Y-105358159D01*
X137416727Y-105266253D01*
X137181181Y-105219400D01*
X136941019Y-105219400D01*
X136705473Y-105266253D01*
X136483592Y-105358159D01*
X136283905Y-105491586D01*
X136114086Y-105661405D01*
X135991600Y-105844718D01*
X135991600Y-104492482D01*
X136114086Y-104675795D01*
X136283905Y-104845614D01*
X136483592Y-104979041D01*
X136705473Y-105070947D01*
X136941019Y-105117800D01*
X137181181Y-105117800D01*
X137416727Y-105070947D01*
X137638608Y-104979041D01*
X137838295Y-104845614D01*
X138008114Y-104675795D01*
X138141541Y-104476108D01*
X138233447Y-104254227D01*
X138280300Y-104018681D01*
X138280300Y-103778519D01*
X138233447Y-103542973D01*
X138141541Y-103321092D01*
X138008114Y-103121405D01*
X137838295Y-102951586D01*
X137638608Y-102818159D01*
X137416727Y-102726253D01*
X137181181Y-102679400D01*
X136941019Y-102679400D01*
X136705473Y-102726253D01*
X136483592Y-102818159D01*
X136283905Y-102951586D01*
X136114086Y-103121405D01*
X135991600Y-103304718D01*
X135991600Y-101952482D01*
X136114086Y-102135795D01*
X136283905Y-102305614D01*
X136483592Y-102439041D01*
X136705473Y-102530947D01*
X136941019Y-102577800D01*
X137181181Y-102577800D01*
X137416727Y-102530947D01*
X137638608Y-102439041D01*
X137838295Y-102305614D01*
X138008114Y-102135795D01*
X138141541Y-101936108D01*
X138233447Y-101714227D01*
X138280300Y-101478681D01*
X138280300Y-101238519D01*
X138233447Y-101002973D01*
X138141541Y-100781092D01*
X138008114Y-100581405D01*
X137838295Y-100411586D01*
X137638608Y-100278159D01*
X137416727Y-100186253D01*
X137181181Y-100139400D01*
X136941019Y-100139400D01*
X136705473Y-100186253D01*
X136483592Y-100278159D01*
X136283905Y-100411586D01*
X136114086Y-100581405D01*
X135991600Y-100764718D01*
X135991600Y-98397947D01*
X136084529Y-98447619D01*
X136189713Y-98479526D01*
X136299100Y-98490300D01*
X136795000Y-98487600D01*
X136934500Y-98348100D01*
X136934500Y-96024200D01*
X137187700Y-96024200D01*
X137187700Y-98348100D01*
X137327200Y-98487600D01*
X137823100Y-98490300D01*
X137932487Y-98479526D01*
X138037671Y-98447619D01*
X138134608Y-98395805D01*
X138141145Y-98390440D01*
X138127900Y-98457028D01*
X138127900Y-98672172D01*
X138169872Y-98883183D01*
X138252205Y-99081951D01*
X138371733Y-99260837D01*
X138523863Y-99412967D01*
X138702749Y-99532495D01*
X138901517Y-99614828D01*
X139112528Y-99656800D01*
X139327672Y-99656800D01*
X139538683Y-99614828D01*
X139737451Y-99532495D01*
X139916337Y-99412967D01*
X140068467Y-99260837D01*
X140187995Y-99081951D01*
X140270328Y-98883183D01*
X140312300Y-98672172D01*
X140312300Y-98457028D01*
X140270328Y-98246017D01*
X140187995Y-98047249D01*
X140109385Y-97929600D01*
X140818400Y-97929600D01*
X140829174Y-98038987D01*
X140861081Y-98144171D01*
X140912895Y-98241108D01*
X140982625Y-98326075D01*
X141067592Y-98395805D01*
X141164529Y-98447619D01*
X141269713Y-98479526D01*
X141379100Y-98490300D01*
X141875000Y-98487600D01*
X142014500Y-98348100D01*
X142014500Y-96024200D01*
X142267700Y-96024200D01*
X142267700Y-98348100D01*
X142407200Y-98487600D01*
X142903100Y-98490300D01*
X143012487Y-98479526D01*
X143117671Y-98447619D01*
X143214608Y-98395805D01*
X143299575Y-98326075D01*
X143369305Y-98241108D01*
X143421119Y-98144171D01*
X143453026Y-98038987D01*
X143463800Y-97929600D01*
X143461378Y-96345219D01*
X158391981Y-96345219D01*
X158434359Y-96642254D01*
X158533872Y-96925316D01*
X158612672Y-97072742D01*
X158852027Y-97168633D01*
X159742061Y-96278600D01*
X158852027Y-95388567D01*
X158612672Y-95484458D01*
X158482884Y-95754979D01*
X158408366Y-96045622D01*
X158391981Y-96345219D01*
X143461378Y-96345219D01*
X143461100Y-96163700D01*
X143321600Y-96024200D01*
X142267700Y-96024200D01*
X142014500Y-96024200D01*
X140960600Y-96024200D01*
X140821100Y-96163700D01*
X140818400Y-97929600D01*
X140109385Y-97929600D01*
X140068467Y-97868363D01*
X139916337Y-97716233D01*
X139737451Y-97596705D01*
X139538683Y-97514372D01*
X139327672Y-97472400D01*
X139112528Y-97472400D01*
X138901517Y-97514372D01*
X138702749Y-97596705D01*
X138523863Y-97716233D01*
X138383688Y-97856408D01*
X138381100Y-96163700D01*
X138241600Y-96024200D01*
X137187700Y-96024200D01*
X136934500Y-96024200D01*
X136914500Y-96024200D01*
X136914500Y-95771000D01*
X136934500Y-95771000D01*
X136934500Y-95751000D01*
X137187700Y-95751000D01*
X137187700Y-95771000D01*
X138241600Y-95771000D01*
X138381100Y-95631500D01*
X138383276Y-94208600D01*
X140818924Y-94208600D01*
X140821100Y-95631500D01*
G37*
%TD.AperFunction*%
%TD*%
M02*
