M48
; DRILL file {KiCad 5.1.10} date Sun Jul 25 21:05:21 2021
; FORMAT={-:-/ absolute / inch / decimal}
; #@! TF.CreationDate,2021-07-25T21:05:21+03:00
; #@! TF.GenerationSoftware,Kicad,Pcbnew,5.1.10
; #@! TF.FileFunction,Plated,1,2,PTH
FMAT,2
INCH
T1C0.0157
T2C0.0394
%
G90
G05
T1
X5.3711Y-3.8855
X5.4211Y-3.8855
X5.4361Y-3.9255
X5.4661Y-3.9605
X5.4961Y-4.5405
X5.5461Y-3.8805
X5.5961Y-3.9405
X5.5961Y-4.1405
X5.5961Y-4.2905
X5.6461Y-3.8905
X5.6511Y-4.0205
X5.6961Y-3.7405
X5.6961Y-3.7805
X5.6961Y-3.8205
X5.6961Y-4.1905
X5.6961Y-4.5405
X5.7111Y-4.4155
X5.7461Y-4.2905
X5.8261Y-3.7405
X5.8361Y-4.0055
X5.8611Y-4.1705
X5.8811Y-4.4155
X5.8961Y-4.5405
X5.9661Y-3.8405
X6.0161Y-3.7405
X6.0511Y-3.9255
X6.0561Y-4.4205
X6.0611Y-4.3155
X6.0661Y-4.1005
X6.0761Y-4.2105
X6.0961Y-4.5405
X6.1961Y-3.7405
X6.1961Y-3.8405
T2
X5.3961Y-3.9905
X5.3961Y-4.0905
X5.3961Y-4.1905
X5.3961Y-4.2905
X5.3961Y-4.3905
X5.3961Y-4.4905
X5.4811Y-3.8805
X6.2961Y-3.7905
X6.2961Y-3.8905
X6.2961Y-3.9905
X6.2961Y-4.0905
X6.2961Y-4.1905
X6.2961Y-4.2905
X6.2961Y-4.3905
X6.2961Y-4.4905
T0
M30
