%TF.GenerationSoftware,KiCad,Pcbnew,5.1.10*%
%TF.CreationDate,2021-07-25T21:05:11+03:00*%
%TF.ProjectId,hoperf-rfm9x-lora-breakout,686f7065-7266-42d7-9266-6d39782d6c6f,rev?*%
%TF.SameCoordinates,Original*%
%TF.FileFunction,Legend,Top*%
%TF.FilePolarity,Positive*%
%FSLAX46Y46*%
G04 Gerber Fmt 4.6, Leading zero omitted, Abs format (unit mm)*
G04 Created by KiCad (PCBNEW 5.1.10) date 2021-07-25 21:05:11*
%MOMM*%
%LPD*%
G01*
G04 APERTURE LIST*
%ADD10C,0.127000*%
%ADD11C,0.609600*%
%ADD12C,0.203200*%
%ADD13C,0.138988*%
%ADD14C,0.104241*%
G04 APERTURE END LIST*
D10*
%TO.C,U1*%
X140391100Y-98719600D02*
X140391100Y-99119600D01*
X156591100Y-98719600D02*
X140391100Y-98719600D01*
X156591100Y-99119600D02*
X156591100Y-98719600D01*
X140391100Y-114919600D02*
X140391100Y-114519600D01*
X156591100Y-114919600D02*
X140391100Y-114919600D01*
X156591100Y-114519600D02*
X156591100Y-114919600D01*
D11*
X143263100Y-100200600D02*
G75*
G03*
X143263100Y-100200600I-300000J0D01*
G01*
D12*
%TO.C,C1*%
X147729100Y-96786600D02*
X147729100Y-97802600D01*
%TO.C,U1*%
D13*
X155243289Y-97510670D02*
X155243289Y-98135752D01*
X155280059Y-98209291D01*
X155316828Y-98246060D01*
X155390367Y-98282830D01*
X155537446Y-98282830D01*
X155610985Y-98246060D01*
X155647754Y-98209291D01*
X155684524Y-98135752D01*
X155684524Y-97510670D01*
X156456684Y-98282830D02*
X156015449Y-98282830D01*
X156236066Y-98282830D02*
X156236066Y-97510670D01*
X156162527Y-97620979D01*
X156088988Y-97694518D01*
X156015449Y-97731287D01*
%TO.C,C1*%
X150540024Y-97374791D02*
X150503254Y-97411560D01*
X150392946Y-97448330D01*
X150319406Y-97448330D01*
X150209098Y-97411560D01*
X150135559Y-97338021D01*
X150098789Y-97264482D01*
X150062020Y-97117404D01*
X150062020Y-97007096D01*
X150098789Y-96860018D01*
X150135559Y-96786479D01*
X150209098Y-96712940D01*
X150319406Y-96676170D01*
X150392946Y-96676170D01*
X150503254Y-96712940D01*
X150540024Y-96749709D01*
X151275414Y-97448330D02*
X150834180Y-97448330D01*
X151054797Y-97448330D02*
X151054797Y-96676170D01*
X150981258Y-96786479D01*
X150907719Y-96860018D01*
X150834180Y-96896787D01*
%TO.C,UFL/SMA1*%
D14*
X143510522Y-98590990D02*
X143979334Y-98590990D01*
X144034488Y-98563413D01*
X144062065Y-98535836D01*
X144089642Y-98480682D01*
X144089642Y-98370373D01*
X144062065Y-98315219D01*
X144034488Y-98287642D01*
X143979334Y-98260065D01*
X143510522Y-98260065D01*
X143786294Y-97791253D02*
X143786294Y-97984293D01*
X144089642Y-97984293D02*
X143510522Y-97984293D01*
X143510522Y-97708522D01*
X144089642Y-97212133D02*
X144089642Y-97487905D01*
X143510522Y-97487905D01*
X143482945Y-96605436D02*
X144227528Y-97101825D01*
X144062065Y-96439973D02*
X144089642Y-96357242D01*
X144089642Y-96219356D01*
X144062065Y-96164202D01*
X144034488Y-96136625D01*
X143979334Y-96109048D01*
X143924180Y-96109048D01*
X143869025Y-96136625D01*
X143841448Y-96164202D01*
X143813871Y-96219356D01*
X143786294Y-96329665D01*
X143758717Y-96384819D01*
X143731140Y-96412396D01*
X143675985Y-96439973D01*
X143620831Y-96439973D01*
X143565677Y-96412396D01*
X143538100Y-96384819D01*
X143510522Y-96329665D01*
X143510522Y-96191779D01*
X143538100Y-96109048D01*
X144089642Y-95860853D02*
X143510522Y-95860853D01*
X143924180Y-95667813D01*
X143510522Y-95474773D01*
X144089642Y-95474773D01*
X143924180Y-95226579D02*
X143924180Y-94950808D01*
X144089642Y-95281733D02*
X143510522Y-95088693D01*
X144089642Y-94895653D01*
X144089642Y-94399265D02*
X144089642Y-94730190D01*
X144089642Y-94564728D02*
X143510522Y-94564728D01*
X143593254Y-94619882D01*
X143648408Y-94675036D01*
X143675985Y-94730190D01*
%TD*%
M02*
